<svg width="111" height="83" viewBox="0 0 111 83" fill="none" xmlns="http://www.w3.org/2000/svg">
<path d="M14.344 47L20.632 15.704H30.52C32.056 15.704 33.464 15.864 34.744 16.184C36.056 16.472 37.192 16.952 38.152 17.624C39.112 18.264 39.864 19.112 40.408 20.168C40.952 21.224 41.224 22.504 41.224 24.008C41.224 26.184 40.84 28.04 40.072 29.576C39.304 31.112 38.264 32.376 36.952 33.368C35.64 34.328 34.104 35.032 32.344 35.48C30.616 35.928 28.76 36.152 26.776 36.152H23.08L20.968 47H14.344ZM24.184 30.92H27.496C29.832 30.92 31.624 30.424 32.872 29.432C34.12 28.44 34.744 26.952 34.744 24.968C34.744 23.56 34.28 22.536 33.352 21.896C32.456 21.256 31.16 20.936 29.464 20.936H26.104L24.184 30.92ZM48.2549 47.576C46.1429 47.576 44.4949 46.824 43.3109 45.32C42.1269 43.816 41.5349 41.656 41.5349 38.84C41.5349 36.568 41.8869 34.456 42.5909 32.504C43.2949 30.52 44.2389 28.792 45.4229 27.32C46.6069 25.848 47.9669 24.696 49.5029 23.864C51.0389 23.032 52.6229 22.616 54.2549 22.616C55.3429 22.616 56.3669 22.904 57.3269 23.48C58.2869 24.024 58.9909 24.776 59.4389 25.736H59.5349L60.5909 23.192H65.8229L61.0709 47H55.7429L55.8389 43.88H55.6949C54.6069 45 53.4069 45.896 52.0949 46.568C50.7829 47.24 49.5029 47.576 48.2549 47.576ZM51.1349 42.2C51.9349 42.2 52.7829 41.96 53.6789 41.48C54.6069 40.968 55.4549 40.04 56.2229 38.696L57.9029 30.248C57.5189 29.448 57.0229 28.872 56.4149 28.52C55.8389 28.168 55.2789 27.992 54.7349 27.992C53.9029 27.992 53.1029 28.248 52.3349 28.76C51.5669 29.272 50.8789 29.976 50.2709 30.872C49.6949 31.768 49.2309 32.824 48.8789 34.04C48.5269 35.256 48.3509 36.584 48.3509 38.024C48.3509 39.464 48.5909 40.52 49.0709 41.192C49.5829 41.864 50.2709 42.2 51.1349 42.2ZM76.2753 47.576C73.8753 47.576 72.1473 46.984 71.0913 45.8C70.0353 44.616 69.5073 43.112 69.5073 41.288C69.5073 40.776 69.5393 40.28 69.6033 39.8C69.6993 39.288 69.7953 38.776 69.8913 38.264L71.9553 28.328H68.7873L69.7473 23.48L73.2513 23.192L75.2673 16.952H80.7873L79.5873 23.192H85.0113L84.0033 28.328H78.4353L76.3713 38.552C76.3073 38.84 76.2753 39.112 76.2753 39.368C76.2753 39.624 76.2753 39.88 76.2753 40.136C76.2753 41.672 77.0913 42.44 78.7233 42.44C79.0753 42.44 79.4113 42.392 79.7313 42.296C80.0513 42.2 80.3713 42.072 80.6913 41.912L81.8433 46.52C81.2033 46.776 80.4193 47.016 79.4913 47.24C78.5633 47.464 77.4913 47.576 76.2753 47.576ZM84.8283 47L91.5963 13.352H98.1723L96.3483 22.136L95.2923 25.976H95.4843C96.5403 25.048 97.6923 24.264 98.9403 23.624C100.188 22.952 101.532 22.616 102.972 22.616C104.956 22.616 106.396 23.144 107.292 24.2C108.188 25.224 108.636 26.728 108.636 28.712C108.636 29.256 108.604 29.816 108.54 30.392C108.508 30.936 108.412 31.512 108.252 32.12L105.276 47H98.7003L101.532 32.936C101.628 32.456 101.708 32.04 101.772 31.688C101.868 31.336 101.916 31 101.916 30.68C101.916 29.048 101.1 28.232 99.4683 28.232C98.7323 28.232 97.9643 28.488 97.1643 29C96.3963 29.48 95.5003 30.248 94.4763 31.304L91.4043 47H84.8283Z" fill="#222255"/>
<path d="M9.60748 72.7001L14.127 50.0681H20.337C21.395 50.0681 22.3495 50.1716 23.2005 50.3786C24.0745 50.5626 24.822 50.8731 25.443 51.3101C26.064 51.7241 26.547 52.2646 26.892 52.9316C27.237 53.5986 27.4095 54.4036 27.4095 55.3466C27.4095 56.3816 27.237 57.3246 26.892 58.1756C26.57 59.0266 26.11 59.7741 25.512 60.4181C24.914 61.0391 24.2125 61.5566 23.4075 61.9706C22.6025 62.3846 21.717 62.6836 20.751 62.8676L24.7185 72.7001H21.855L18.129 63.1091H14.196L12.2985 72.7001H9.60748ZM14.6445 60.9356H18.06C20.222 60.9356 21.878 60.4641 23.028 59.5211C24.178 58.5781 24.753 57.3016 24.753 55.6916C24.753 54.4496 24.316 53.5641 23.442 53.0351C22.591 52.4831 21.3375 52.2071 19.6815 52.2071H16.3695L14.6445 60.9356ZM34.5138 73.1141C32.6968 73.1141 31.2478 72.5161 30.1668 71.3201C29.0858 70.1241 28.5453 68.4796 28.5453 66.3866C28.5453 64.7996 28.7983 63.3391 29.3043 62.0051C29.8103 60.6711 30.4888 59.5326 31.3398 58.5896C32.1908 57.6236 33.1568 56.8761 34.2378 56.3471C35.3188 55.7951 36.4343 55.5191 37.5843 55.5191C39.4013 55.5191 40.8503 56.1171 41.9313 57.3131C43.0353 58.5091 43.5873 60.1536 43.5873 62.2466C43.5873 63.8336 43.3228 65.2941 42.7938 66.6281C42.2878 67.9621 41.6093 69.1121 40.7583 70.0781C39.9303 71.0211 38.9643 71.7686 37.8603 72.3206C36.7793 72.8496 35.6638 73.1141 34.5138 73.1141ZM34.7898 70.9061C35.5718 70.9061 36.3193 70.6876 37.0323 70.2506C37.7683 69.7906 38.4238 69.1811 38.9988 68.4221C39.5738 67.6631 40.0338 66.7661 40.3788 65.7311C40.7238 64.6961 40.8963 63.5921 40.8963 62.4191C40.8963 60.9011 40.5858 59.7396 39.9648 58.9346C39.3668 58.1066 38.4813 57.6926 37.3083 57.6926C36.5493 57.6926 35.8018 57.9226 35.0658 58.3826C34.3298 58.8196 33.6743 59.4291 33.0993 60.2111C32.5243 60.9701 32.0643 61.8671 31.7193 62.9021C31.3743 63.9371 31.2018 65.0411 31.2018 66.2141C31.2018 67.7321 31.5008 68.8936 32.0988 69.6986C32.7198 70.5036 33.6168 70.9061 34.7898 70.9061ZM62.0327 55.9331L58.6862 72.7001H56.5127L56.7887 70.1471H56.6507C55.7307 70.9521 54.7877 71.6536 53.8217 72.2516C52.8787 72.8266 51.8897 73.1141 50.8547 73.1141C49.4287 73.1141 48.4052 72.7461 47.7842 72.0101C47.1862 71.2511 46.8872 70.2276 46.8872 68.9396C46.8872 68.5486 46.8987 68.1806 46.9217 67.8356C46.9677 67.4906 47.0482 67.0881 47.1632 66.6281L49.3022 55.9331H51.9587L49.8542 66.2831C49.7622 66.7431 49.6932 67.1111 49.6472 67.3871C49.6012 67.6631 49.5782 67.9506 49.5782 68.2496C49.5782 69.1006 49.7737 69.7446 50.1647 70.1816C50.5557 70.6186 51.1882 70.8371 52.0622 70.8371C52.7292 70.8371 53.4652 70.5956 54.2702 70.1126C55.0752 69.6296 55.9952 68.8591 57.0302 67.8011L59.4107 55.9331H62.0327ZM69.5647 73.1141C68.8287 73.1141 68.2077 73.0106 67.7017 72.8036C67.1957 72.6196 66.7817 72.3666 66.4597 72.0446C66.1377 71.6996 65.9077 71.3086 65.7697 70.8716C65.6317 70.4116 65.5627 69.9171 65.5627 69.3881C65.5627 69.0431 65.5742 68.7326 65.5972 68.4566C65.6432 68.1576 65.6892 67.8471 65.7352 67.5251L67.7017 58.0721H65.2522L65.6317 56.1056L68.2537 55.9331L69.4957 51.3101H71.7382L70.8067 55.9331H75.0502L74.6362 58.0721H70.3237L68.3572 67.6631C68.2882 68.0771 68.2537 68.4911 68.2537 68.9051C68.2537 69.5951 68.4032 70.1126 68.7022 70.4576C69.0242 70.8026 69.5877 70.9751 70.3927 70.9751C70.7147 70.9751 71.0252 70.9176 71.3242 70.8026C71.6232 70.6876 71.8992 70.5726 72.1522 70.4576L72.7387 72.3551C72.3477 72.5391 71.8877 72.7116 71.3587 72.8726C70.8297 73.0336 70.2317 73.1141 69.5647 73.1141ZM75.3073 66.1106C75.3073 64.5236 75.5718 63.0861 76.1008 61.7981C76.6298 60.4871 77.3083 59.3716 78.1363 58.4516C78.9873 57.5086 79.9418 56.7841 80.9998 56.2781C82.0808 55.7721 83.1733 55.5191 84.2773 55.5191C85.2203 55.5191 86.0138 55.6801 86.6578 56.0021C87.3248 56.3011 87.8653 56.7266 88.2793 57.2786C88.6933 57.8076 88.9923 58.4516 89.1763 59.2106C89.3603 59.9466 89.4523 60.7401 89.4523 61.5911C89.4523 62.2581 89.3833 62.8906 89.2453 63.4886C89.1073 64.0866 88.9808 64.5466 88.8658 64.8686H77.9638C77.8028 65.9496 77.8143 66.8811 77.9983 67.6631C78.1823 68.4221 78.4813 69.0546 78.8953 69.5606C79.3323 70.0666 79.8613 70.4346 80.4823 70.6646C81.1033 70.8946 81.7818 71.0096 82.5178 71.0096C83.1848 71.0096 83.8403 70.8716 84.4843 70.5956C85.1513 70.2966 85.7493 69.9516 86.2783 69.5606L87.3133 71.3201C86.6463 71.8031 85.8528 72.2286 84.9328 72.5966C84.0128 72.9416 83.0008 73.1141 81.8968 73.1141C79.8958 73.1141 78.2973 72.5161 77.1013 71.3201C75.9053 70.1011 75.3073 68.3646 75.3073 66.1106ZM78.2398 63.0746H87.0373C87.0833 62.7986 87.1178 62.5226 87.1408 62.2466C87.1868 61.9706 87.2098 61.6716 87.2098 61.3496C87.2098 60.8666 87.1523 60.4066 87.0373 59.9696C86.9223 59.5096 86.7383 59.1071 86.4853 58.7621C86.2323 58.4171 85.8988 58.1411 85.4848 57.9341C85.0708 57.7271 84.5648 57.6236 83.9668 57.6236C83.3458 57.6236 82.7363 57.7501 82.1383 58.0031C81.5633 58.2561 81.0228 58.6241 80.5168 59.1071C80.0108 59.5901 79.5508 60.1651 79.1368 60.8321C78.7458 61.4991 78.4468 62.2466 78.2398 63.0746ZM91.7102 72.7001L95.0222 55.9331H97.1957L96.8162 59.1416H96.9542C97.6212 58.1066 98.3917 57.2441 99.2657 56.5541C100.163 55.8641 101.129 55.5191 102.164 55.5191C102.739 55.5191 103.268 55.6226 103.751 55.8296L102.819 58.1756C102.451 57.9916 101.968 57.8996 101.37 57.8996C100.542 57.8996 99.6912 58.2561 98.8172 58.9691C97.9432 59.6821 97.1497 60.7286 96.4367 62.1086L94.3322 72.7001H91.7102Z" fill="#222255"/>
<path d="M6.60008 72.7001L17.5001 15.7H11.0101L0.400085 72.7001H6.60008Z" fill="#222255"/>
</svg>
